<?xml version="1.0" encoding="UTF-8" standalone="no"?><!DOCTYPE svg PUBLIC "-//W3C//DTD SVG 1.1//EN" "http://www.w3.org/Graphics/SVG/1.1/DTD/svg11.dtd"><svg width="100%" height="100%" viewBox="0 0 380 380" version="1.1" xmlns="http://www.w3.org/2000/svg" xmlns:xlink="http://www.w3.org/1999/xlink" xml:space="preserve" xmlns:serif="http://www.serif.com/" style="fill-rule:evenodd;clip-rule:evenodd;stroke-linecap:square;stroke-linejoin:round;stroke-miterlimit:2;"><g><path d="M379.566,60.731c-0,-33.519 -27.213,-60.731 -60.731,-60.731l-258.104,0c-33.519,0 -60.731,27.212 -60.731,60.731l-0,258.104c-0,33.518 27.212,60.731 60.731,60.731l258.104,-0c33.518,-0 60.731,-27.213 60.731,-60.731l-0,-258.104Z" style="fill:#27400f;"/><g><path d="M266.293,67.23l-184.429,-0c-1.566,-0 -3.068,0.622 -4.176,1.729c-1.107,1.108 -1.73,2.61 -1.73,4.176c0,10.64 0,32.911 0,43.551c0,3.261 2.644,5.905 5.906,5.905c31.952,0 183.886,0 215.838,0c3.262,0 5.906,2.644 5.906,5.906l-0,177.934c-0,3.261 -2.644,5.905 -5.906,5.905c-35.755,0 -221.744,0 -221.744,0l0,-94.872" style="fill:none;stroke:#bdfff9;stroke-width:23.2px;"/><text x="158.569px" y="253.346px" style="font-family:'MontserratAlternates-ExtraBold', 'Montserrat Alternates';font-weight:800;font-size:101.508px;fill:#bdfff9;">$</text></g><path d="M379.566,60.731c-0,-33.519 -27.213,-60.731 -60.731,-60.731l-258.104,0c-33.519,0 -60.731,27.212 -60.731,60.731l-0,258.104c-0,33.518 27.212,60.731 60.731,60.731l258.104,-0c33.518,-0 60.731,-27.213 60.731,-60.731l-0,-258.104Z" style="fill:#0d9af2;"/><clipPath id="_clip1"><path d="M379.566,60.731c-0,-33.519 -27.213,-60.731 -60.731,-60.731l-258.104,0c-33.519,0 -60.731,27.212 -60.731,60.731l-0,258.104c-0,33.518 27.212,60.731 60.731,60.731l258.104,-0c33.518,-0 60.731,-27.213 60.731,-60.731l-0,-258.104Z"/></clipPath><g clip-path="url(#_clip1)"><path d="M66.56,298.241l227.361,4.697l0,-199.71c2.892,3.291 12.869,4.249 15.832,7.572c66.544,74.622 143.421,159.319 221.855,239.225l-191.894,119.733l-122.917,-0c-60.222,-65.955 -143.853,-152.179 -150.237,-171.517Z" style="fill-opacity:0.24;"/></g><g><path d="M263.944,76.628c-60.246,0.901 -120.974,0.804 -182.009,0.073c-1.578,-0.019 -3.099,0.595 -4.222,1.704c-1.123,1.11 -1.755,2.623 -1.755,4.201c0,6.818 0,17.895 0,24.682c0,3.261 2.644,5.905 5.906,5.905c31.952,0 183.886,0 215.838,0c3.262,0 5.906,2.644 5.906,5.906l-0,177.934c-0,3.261 -2.644,5.905 -5.906,5.905c-31.952,0 -183.886,0 -215.838,0c-3.262,0 -5.906,-2.644 -5.906,-5.905c0,-24.421 0,-117.38 0,-141.801c0,-3.261 2.644,-5.905 5.906,-5.905c31.888,-0 182.08,-0 182.08,-0" style="fill:none;stroke:#f2f2f2;stroke-width:23.2px;"/><text x="156.945px" y="262.744px" style="font-family:'MontserratAlternates-ExtraBold', 'Montserrat Alternates';font-weight:800;font-size:101.508px;fill:#f2f2f2;">$</text></g></g></svg>