<?xml version="1.0" encoding="UTF-8" standalone="no"?><!DOCTYPE svg PUBLIC "-//W3C//DTD SVG 1.1//EN" "http://www.w3.org/Graphics/SVG/1.1/DTD/svg11.dtd"><svg width="100%" height="100%" viewBox="0 0 14882 10524" version="1.1" xmlns="http://www.w3.org/2000/svg" xmlns:xlink="http://www.w3.org/1999/xlink" xml:space="preserve" xmlns:serif="http://www.serif.com/" style="fill-rule:evenodd;clip-rule:evenodd;stroke-linejoin:round;stroke-miterlimit:1;"><g><path d="M5477.84,1926.49c0,-511.484 -415.259,-926.743 -926.743,-926.743l-1853.49,-0c-511.484,-0 -926.744,415.259 -926.744,926.743l0,1853.49c0,511.484 415.26,926.744 926.744,926.744l1853.49,-0c511.484,-0 926.743,-415.26 926.743,-926.744l0,-1853.49Z" style="fill:#04396c;"/><g><path d="M4883.36,2407.1l-0,359.619c-0,156.553 -126.911,283.465 -283.465,283.465l-692.07,-0c-156.554,-0 -283.465,126.911 -283.465,283.464l-0,608.814" style="fill:none;stroke:#fff;stroke-width:187.5px;"/><path d="M4883.36,2407.1c-0,-354.927 -282.07,-643.083 -629.5,-643.083c-347.431,-0 -629.5,288.156 -629.5,643.083l1259,0Z" style="fill:none;stroke:#fff;stroke-width:187.5px;stroke-miterlimit:5;"/><path d="M3624.36,2407.1c-0,354.928 -282.07,643.084 -629.5,643.084c-347.431,-0 -629.5,-288.156 -629.5,-643.084l1259,0Z" style="fill:none;stroke:#fff;stroke-width:187.5px;stroke-miterlimit:5;"/><path d="M4055.32,2124.67c0,-9.451 -3.754,-18.515 -10.437,-25.198c-6.683,-6.683 -15.747,-10.437 -25.198,-10.437l-311.365,-0l0,145l311.591,-0c19.556,-0 35.409,-15.853 35.409,-35.409c0,-22.469 0,-51.443 0,-73.956Z" style="fill:#fff;"/></g></g><g><path d="M12940.8,1926.49c0,-511.484 -415.259,-926.743 -926.743,-926.743l-1853.49,-0c-511.484,-0 -926.744,415.259 -926.744,926.743l0,1853.49c0,511.484 415.26,926.744 926.744,926.744l1853.49,-0c511.484,-0 926.743,-415.26 926.743,-926.744l0,-1853.49Z" style="fill:#fff;stroke:#04396c;stroke-width:41.67px;"/><g><path d="M12346.4,2407.1c-0,0 -0,187.215 -0,359.619c-0,156.553 -126.911,283.465 -283.465,283.465l-692.07,-0c-156.554,-0 -283.465,126.911 -283.465,283.464c-0,261.282 -0,608.814 -0,608.814" style="fill:none;stroke:#04396c;stroke-width:187.5px;"/><path d="M12346.4,2407.1c-0,-354.927 -282.07,-643.083 -629.5,-643.083c-347.431,-0 -629.5,288.156 -629.5,643.083l1259,0Z" style="fill:none;stroke:#04396c;stroke-width:187.5px;stroke-miterlimit:5;"/><path d="M11087.4,2407.1c-0,354.928 -282.07,643.084 -629.5,643.084c-347.431,-0 -629.5,-288.156 -629.5,-643.084l1259,0Z" style="fill:none;stroke:#04396c;stroke-width:187.5px;stroke-miterlimit:5;"/><path d="M11518.3,2124.67c0,-9.451 -3.754,-18.515 -10.437,-25.198c-6.683,-6.683 -15.747,-10.437 -25.198,-10.437l-311.365,-0l0,145l311.591,-0c19.556,-0 35.409,-15.853 35.409,-35.409c0,-22.469 0,-51.443 0,-73.956Z" style="fill:#04396c;stroke:#04396c;stroke-width:41.67px;"/></g></g><g><g><path d="M3960.03,7265.67l0,359.619c0,156.553 -126.911,283.465 -283.464,283.465c-206.634,-0 -485.437,-0 -692.071,-0c-156.553,-0 -283.465,126.911 -283.465,283.464l0,608.813" style="fill:none;stroke:#04396c;stroke-width:187.5px;"/><path d="M3960.03,7265.67c0,-354.927 -282.069,-643.083 -629.5,-643.083c-347.43,-0 -629.5,288.156 -629.5,643.083l1259,0Z" style="fill:none;stroke:#04396c;stroke-width:187.5px;stroke-miterlimit:5;"/><path d="M2701.03,7265.67c0,354.928 -282.069,643.084 -629.5,643.084c-347.43,-0 -629.5,-288.156 -629.5,-643.084l1259,0Z" style="fill:none;stroke:#04396c;stroke-width:187.5px;stroke-miterlimit:5;"/><path d="M3132,6984.25c0,-9.451 -3.754,-18.515 -10.437,-25.198c-6.683,-6.683 -15.747,-10.437 -25.198,-10.437l-311.365,-0l0,145l311.591,-0c19.556,-0 35.409,-15.854 35.409,-35.41c0,-22.469 0,-51.443 -0,-73.955Z" style="fill:#04396c;"/></g><text x="2842.52px" y="8775.19px" style="font-family:'ArialMT', 'Arial', sans-serif;font-size:942.083px;fill:#04396c;stroke:#04396c;stroke-width:41.67px;stroke-miterlimit:2;">E<tspan x="3485.02px 4023.09px 4298.96px 4993.44px 5740.35px 6434.82px " y="8775.19px 8775.19px 8775.19px 8775.19px 8775.19px 8775.19px ">LICODE</tspan></text></g><g><g><path d="M12294.8,7160.07l-0,359.619c-0,156.553 -126.911,283.464 -283.465,283.464c-206.634,0 -485.436,0 -692.07,0c-156.554,0 -283.465,126.912 -283.465,283.465c-0,261.281 -0,608.813 -0,608.813" style="fill:none;stroke:#04396c;stroke-width:187.5px;"/><path d="M12294.8,7160.07c-0,-354.928 -282.07,-643.084 -629.5,-643.084c-347.431,0 -629.5,288.156 -629.5,643.084l1259,-0Z" style="fill:none;stroke:#04396c;stroke-width:187.5px;stroke-miterlimit:5;"/><path d="M11035.8,7160.07c-0,354.927 -282.07,643.083 -629.5,643.083c-347.431,0 -629.5,-288.156 -629.5,-643.083l1259,-0Z" style="fill:none;stroke:#04396c;stroke-width:187.5px;stroke-miterlimit:5;"/><path d="M11466.8,6878.64c0,-9.451 -3.754,-18.515 -10.437,-25.197c-6.683,-6.683 -15.747,-10.438 -25.198,-10.438l-311.365,0l0,145l311.591,0c19.556,0 35.409,-15.853 35.409,-35.409c0,-22.469 0,-51.443 0,-73.956Z" style="fill:#04396c;"/></g></g><g><text x="8593.18px" y="9487.36px" style="font-family:'ArialMT', 'Arial', sans-serif;font-size:942.083px;fill:#04396c;stroke:#04396c;stroke-width:41.67px;stroke-miterlimit:2;">P<tspan x="9235.68px 9878.17px 10416.2px 10692.1px 11386.6px 12133.5px 12828px " y="9487.36px 9487.36px 9487.36px 9487.36px 9487.36px 9487.36px 9487.36px ">ELICODE</tspan></text></g></svg>